<?xml version="1.0" encoding="utf-8"?>
<!-- Generator: Adobe Illustrator 15.0.0, SVG Export Plug-In . SVG Version: 6.00 Build 0)  -->
<!DOCTYPE svg PUBLIC "-//W3C//DTD SVG 1.1//EN" "http://www.w3.org/Graphics/SVG/1.1/DTD/svg11.dtd">
<svg version="1.1" id="Capa_1" xmlns="http://www.w3.org/2000/svg" xmlns:xlink="http://www.w3.org/1999/xlink" x="0px" y="0px"
	 width="618.354px" height="1317.131px" viewBox="692.293 -198.754 618.354 1317.131"
	 enable-background="new 692.293 -198.754 618.354 1317.131" xml:space="preserve">
<g>
	<g id="Clips_2_">
		<g>
			<path d="M1001.471-167.878c-154.063,0-278.979,124.916-278.978,278.978l-0.001,767.154c0,115.594,93.649,209.244,209.247,209.246
				c95.275,0,174.822-64.16,200.072-151.252c5.572-6.162,9.123-14.152,9.174-23.08V146.017c0-77.03-62.434-139.464-139.463-139.464
				c-77.03,0-139.464,62.435-139.464,139.464l-0.002,627.688c0,19.234,15.633,34.869,34.866,34.865
				c19.234,0,34.867-15.633,34.865-34.865l0.002-627.689c0-38.564,31.216-69.78,69.733-69.733c38.564,0,69.781,31.216,69.732,69.733
				l-0.002,732.335c0,77.029-62.434,139.463-139.464,139.465c-77.03-0.002-139.464-62.436-139.464-139.465l-0.1-767.252
				c0-115.595,93.65-209.245,209.246-209.247c115.594,0,209.244,93.65,209.246,209.247v697.422
				c0,19.234,15.633,34.867,34.865,34.865c19.234,0,34.869-15.633,34.865-34.865V111.099
				C1280.449-42.962,1155.533-167.878,1001.471-167.878z"/>
		</g>
	</g>
</g>
</svg>
