<svg height="512pt" viewBox="0 -97 512 512" width="512pt" xmlns="http://www.w3.org/2000/svg"><path d="m467 200h-88v-27.476562l-112.738281 72.476562 112.738281 72.476562v-27.476562h58c41.355469 0 75-33.644531 75-75v-60c0 24.8125-20.1875 45-45 45zm0 0"/><path d="m409 117.574219v52.425781h43v-137.980469l-196.144531 130.171875c-9.070313 6.019532-19.460938 9.027344-29.855469 9.027344s-20.785156-3.007812-29.855469-9.027344l-196.144531-130.289062v228.097656h234.117188l-23.335938-15zm0 0"/><path d="m239.269531 137.195312 206.726563-137.195312h-439.800782l206.535157 137.195312c8.058593 5.347657 18.480469 5.347657 26.539062 0zm0 0"/><path d="m482 95.039062v29.960938c16.570312 0 30 13.429688 30 30 0-24.484375-11.796875-46.261719-30-59.960938zm0 0"/></svg>