<?xml version="1.0" encoding="utf-8"?>
<!-- Generator: Adobe Illustrator 15.0.0, SVG Export Plug-In . SVG Version: 6.00 Build 0)  -->
<!DOCTYPE svg PUBLIC "-//W3C//DTD SVG 1.1//EN" "http://www.w3.org/Graphics/SVG/1.1/DTD/svg11.dtd">
<svg version="1.1" id="Capa_1" xmlns="http://www.w3.org/2000/svg" xmlns:xlink="http://www.w3.org/1999/xlink" x="0px" y="0px"
	 width="512px" height="512px" viewBox="0 0 512 512" enable-background="new 0 0 512 512" xml:space="preserve">
<g>
	<path fill="#FFFFFF" d="M460.255,0h-10.894c-4.514,0-8.17,3.657-8.17,8.17s3.656,8.17,8.17,8.17h2.724v479.319h-87.229
		c-4.514,0-8.171,3.657-8.171,8.171c0,4.513,3.657,8.17,8.171,8.17h95.398c4.513,0,8.17-3.657,8.17-8.17V8.17
		C468.425,3.657,464.768,0,460.255,0z"/>
	<path fill="#FFFFFF" d="M503.829,0h-10.894c-4.513,0-8.17,3.657-8.17,8.17s3.657,8.17,8.17,8.17h2.724v479.319h-2.724
		c-4.513,0-8.17,3.657-8.17,8.171c0,4.513,3.657,8.17,8.17,8.17h10.894c4.514,0,8.171-3.657,8.171-8.17V8.17
		C512,3.657,508.343,0,503.829,0z"/>
	<path fill="#FFFFFF" d="M320.246,511.841c0.237-0.048,0.471-0.108,0.7-0.177c0.023-0.006,0.048-0.011,0.072-0.019
		c0.232-0.07,0.459-0.154,0.683-0.245c0.022-0.01,0.046-0.016,0.068-0.024c0.213-0.089,0.419-0.188,0.621-0.293
		c0.034-0.019,0.068-0.032,0.103-0.051c0.187-0.1,0.365-0.21,0.542-0.324c0.049-0.03,0.099-0.057,0.146-0.088
		c0.162-0.109,0.315-0.229,0.47-0.347c0.058-0.045,0.118-0.084,0.174-0.131c0.159-0.131,0.31-0.272,0.459-0.415
		c0.043-0.041,0.09-0.077,0.133-0.12l98.042-98.042c0.043-0.042,0.079-0.089,0.12-0.134c0.143-0.148,0.284-0.298,0.415-0.458
		c0.047-0.057,0.087-0.118,0.132-0.177c0.119-0.153,0.237-0.305,0.346-0.467c0.032-0.049,0.06-0.102,0.091-0.151
		c0.112-0.176,0.223-0.353,0.321-0.537c0.018-0.032,0.032-0.069,0.05-0.102c0.105-0.204,0.206-0.409,0.294-0.622
		c0.009-0.021,0.015-0.043,0.022-0.064c0.092-0.225,0.175-0.451,0.246-0.688c0.008-0.022,0.013-0.049,0.019-0.071
		c0.068-0.229,0.129-0.462,0.176-0.7c0.013-0.066,0.019-0.133,0.03-0.199c0.034-0.197,0.068-0.393,0.089-0.594
		c0.026-0.27,0.041-0.542,0.041-0.815V8.17c0-4.513-3.657-8.17-8.17-8.17H51.743c-4.512,0-8.169,3.657-8.169,8.17v92.596H24.511
		C10.996,100.766,0,111.762,0,125.276s10.996,24.511,24.511,24.511h19.063v81.702H24.511C10.996,231.489,0,242.485,0,256
		s10.996,24.511,24.511,24.511h19.063v81.702H24.511C10.996,362.213,0,373.209,0,386.724s10.996,24.511,24.511,24.511h19.063v92.596
		c0,4.513,3.657,8.17,8.17,8.17h266.894c0.273,0,0.546-0.015,0.816-0.041c0.205-0.021,0.407-0.056,0.607-0.091
		C320.123,511.857,320.185,511.852,320.246,511.841z M326.808,484.105v-70.148h70.148L326.808,484.105z M16.34,125.276
		c0-4.505,3.665-8.17,8.171-8.17h27.191c0.084,0,27.276,0,27.276,0c4.506,0,8.17,3.665,8.17,8.17c0,4.506-3.664,8.17-8.17,8.17
		H51.787c-0.084,0-27.276,0-27.276,0C20.005,133.447,16.34,129.782,16.34,125.276z M16.34,256c0-4.506,3.665-8.17,8.171-8.17h27.171
		c0.021,0,0.042,0.003,0.063,0.003c0.021,0,0.042-0.003,0.063-0.003h27.171c4.506,0,8.17,3.665,8.17,8.17s-3.664,8.17-8.17,8.17
		h-27.15c-0.028,0-0.056-0.004-0.084-0.004s-0.056,0.004-0.084,0.004H24.511C20.005,264.17,16.34,260.506,16.34,256z M16.34,386.724
		c0-4.506,3.665-8.171,8.171-8.171h27.171c0.021,0,0.042,0.004,0.063,0.004c0.021,0,0.042-0.004,0.063-0.004h27.171
		c4.506,0,8.17,3.665,8.17,8.171c0,4.505-3.664,8.17-8.17,8.17H51.851c-0.035,0-0.07-0.005-0.106-0.005s-0.069,0.005-0.105,0.005
		H24.511C20.005,394.894,16.34,391.229,16.34,386.724z M59.915,411.234h19.063c13.515,0,24.511-10.996,24.511-24.511
		s-10.996-24.511-24.511-24.511H59.915v-81.702h19.063c13.515,0,24.511-10.996,24.511-24.511s-10.996-24.511-24.511-24.511H59.915
		v-81.702h19.063c13.515,0,24.511-10.996,24.511-24.511s-10.996-24.51-24.511-24.51H59.915V16.34h81.702v100.766
		c0,4.513,3.656,8.17,8.17,8.17c4.513,0,8.17-3.657,8.17-8.17V16.34H408.51v381.277h-89.872c-4.513,0-8.17,3.656-8.17,8.17v89.872
		H157.957V149.787c0-4.513-3.657-8.17-8.17-8.17c-4.514,0-8.17,3.657-8.17,8.17v345.872H59.915V411.234z"/>
</g>
<g>
	<circle fill="#FFFFFF" cx="287.181" cy="131.994" r="50.862"/>
	<path fill="#FFFFFF" d="M287.181,208.287c-50.914,0-92.188,41.273-92.188,92.187h184.376
		C379.369,249.56,338.096,208.287,287.181,208.287z"/>
</g>
</svg>
